# xmcd
#
# Track frame offsets:
#	150
#	16549
#	35062
#	50503
#	63125
#	78398
#	98058
#	114268
#	127381
#	142104
#	157384
#	172823
#	187655
#	202755
#	222110
#	236646
#	250673
#	267846
#	284374
#	298697
#	313144
#	326989
#
# Disc length: 4544 seconds
#
# Revision: 1
# Processed by: cddbd v1.5.2PL0 Copyright (c) Steve Scherf et al.
# Submitted via: audiograbber 1.82.02
#
DISCID=4011be16
DTITLE=Various Artist  - Country Radio - May 2017
DYEAR=2017
DGENRE=Country
TTITLE0=Aubrie Sellers - Liar Liar
TTITLE1=Danny Worsnop - Anyone But Me
TTITLE2=Dan and Shay - When I Pray For You
TTITLE3=Coffey Anderson - Bud Light Blue
TTITLE4=Dustin Lynch - Small Town Boy
TTITLE5=Sarah Dunn Band - Figure It Out
TTITLE6=Brett Eldredge - Somethin' I'm Good At
TTITLE7=Cort Carpenter - Wrong Kinda Right
TTITLE8=Robbie Robinson - This Is The Life
TTITLE9=A Thousand Horses - Preachin' To The Choir
TTITLE10=Railers - 1159 (Central Standard Time)
TTITLE11=Big and Rich - California
TTITLE12=Cypress Spring - Denim
TTITLE13=Rutledge - Rub A Little Dirt On It
TTITLE14=Jacob Davis - What I Wanna Be
TTITLE15=Cash Creek - Hard Way, The
TTITLE16=Erin Durant - Kind Woman
TTITLE17=Rachael Turner - Hurt's Don't It
TTITLE18=Taylon Hope - Showin' My Roots
TTITLE19=Smith and Wesley - Little Things, The
TTITLE20=Reg Poole - Music's Been Good To Me
TTITLE21=Kayla Calabrese - Me Time
EXTD=
EXTT0=
EXTT1=
EXTT2=
EXTT3=
EXTT4=
EXTT5=
EXTT6=
EXTT7=
EXTT8=
EXTT9=
EXTT10=
EXTT11=
EXTT12=
EXTT13=
EXTT14=
EXTT15=
EXTT16=
EXTT17=
EXTT18=
EXTT19=
EXTT20=
EXTT21=
PLAYORDER=
